<svg width="333" height="661" viewBox="0 0 333 661" fill="none" xmlns="http://www.w3.org/2000/svg">
<path d="M54.6652 1C13.3926 8.6889 -38.8051 87.6013 48.1911 131.307C59.6557 135.758 88.7353 138.996 113.337 116.334C144.089 88.006 105.244 30.5416 62.3532 55.227C19.4621 79.9124 38.8845 142.638 91.4868 155.587C144.089 168.537 166.344 170.965 182.125 188.366C197.905 205.768 217.328 234.905 204.38 276.586C193.071 312.99 138.245 334.886 135.052 289.705C133.922 273.715 140.978 258.313 150.389 245.336C187.38 194.333 226.263 187.557 238.773 187.557C249.976 187.557 317.904 190.24 300.39 267.955C296.552 284.984 286.694 299.863 275.601 313.341C240.394 356.115 190.852 421.743 182.125 448.575C174.706 472.207 167.268 519.975 182.125 550.755C198.814 585.331 235.894 636.284 357 660" stroke="#00B0EF" stroke-width="0.5" stroke-linecap="round"/>
</svg>
