<svg width="152" height="348" viewBox="0 0 152 348" fill="none" xmlns="http://www.w3.org/2000/svg">
<path opacity="0.1" d="M44.5869 13.245C23.4763 4.50064 0.850006 0 -22 0V115.537C-14.3225 115.537 -6.72018 117.049 0.372864 119.987C7.46594 122.925 13.9109 127.232 19.3397 132.66C24.7685 138.089 29.0748 144.534 32.0129 151.627C34.9509 158.72 36.4631 166.323 36.4631 174C36.4631 181.677 34.951 189.28 32.0129 196.373C29.0749 203.466 24.7685 209.911 19.3397 215.34C13.9109 220.768 7.46597 225.075 0.372894 228.013C-6.72018 230.951 -14.3225 232.463 -22 232.463V348C0.850006 348 23.4763 343.499 44.5869 334.755C65.6976 326.011 84.8792 313.194 101.037 297.037C117.194 280.879 130.011 261.698 138.755 240.587C147.499 219.476 152 196.85 152 174C152 151.15 147.499 128.524 138.755 107.413C130.011 86.3025 117.194 67.1208 101.037 50.9634C84.8792 34.806 65.6976 21.9893 44.5869 13.245Z" fill="#1E5AFA"/>
</svg>
