<svg width="203" height="380" viewBox="0 0 203 380" fill="none" xmlns="http://www.w3.org/2000/svg">
<path d="M31.9027 1C8.13619 5.41033 -21.9215 50.6742 28.1746 75.7434C34.7764 78.2968 51.5218 80.1537 65.6885 67.1549C83.3969 50.9063 61.0284 17.9449 36.3298 32.1044C11.6313 46.2639 22.8155 82.2429 53.1062 89.6708C83.3969 97.0987 96.2122 98.4914 105.299 108.473C114.387 118.454 125.571 135.167 118.115 159.075C112.674 176.522 89.7396 188.159 81.2697 176.4C71.8738 163.355 82.8906 145.134 93.4893 133.047C112.689 111.15 131.443 108.008 137.92 108.008C143.781 108.008 176.605 109.279 174.997 142.942C174.162 160.409 162.957 175.271 152.003 188.902C132.721 212.895 109.759 244.071 105.299 257.727C101.028 271.283 96.7442 298.682 105.299 316.338C114.91 336.17 136.262 365.397 206 379" stroke="#00B0EF" stroke-width="0.5" stroke-linecap="round"/>
</svg>
