<svg width="100" height="116" viewBox="0 0 100 116" fill="none" xmlns="http://www.w3.org/2000/svg">
<path d="M98 116C98.3955 116 98.7822 115.883 99.1111 115.663C99.44 115.443 99.6964 115.131 99.8478 114.765C99.9992 114.4 100.039 113.998 99.9616 113.61C99.8844 113.222 99.6939 112.865 99.4142 112.586C99.1345 112.306 98.7781 112.116 98.3902 112.038C98.0022 111.961 97.6 112.001 97.2346 112.152C96.8691 112.304 96.5568 112.56 96.337 112.889C96.1173 113.218 96 113.604 96 114C96 114.53 96.2107 115.039 96.5857 115.414C96.9608 115.789 97.4695 116 98 116Z" fill="white"/>
<path d="M98 100C98.3955 100 98.7822 99.8827 99.1111 99.6629C99.44 99.4432 99.6964 99.1308 99.8478 98.7654C99.9992 98.3999 100.039 97.9978 99.9616 97.6098C99.8844 97.2219 99.6939 96.8655 99.4142 96.5858C99.1345 96.3061 98.7781 96.1156 98.3902 96.0384C98.0022 95.9613 97.6 96.0009 97.2346 96.1522C96.8691 96.3036 96.5568 96.56 96.337 96.8889C96.1173 97.2178 96 97.6044 96 98C96 98.5304 96.2107 99.0392 96.5857 99.4142C96.9608 99.7893 97.4695 100 98 100Z" fill="white"/>
<path d="M98 84C98.3955 84 98.7822 83.8827 99.1111 83.6629C99.44 83.4432 99.6964 83.1308 99.8478 82.7654C99.9992 82.3999 100.039 81.9978 99.9616 81.6098C99.8844 81.2219 99.6939 80.8655 99.4142 80.5858C99.1345 80.3061 98.7781 80.1156 98.3902 80.0384C98.0022 79.9613 97.6 80.0009 97.2346 80.1522C96.8691 80.3036 96.5568 80.56 96.337 80.8889C96.1173 81.2178 96 81.6044 96 82C96 82.5304 96.2107 83.0392 96.5857 83.4142C96.9608 83.7893 97.4695 84 98 84Z" fill="white"/>
<path d="M98 68C98.3955 68 98.7822 67.8827 99.1111 67.6629C99.44 67.4432 99.6964 67.1308 99.8478 66.7654C99.9992 66.3999 100.039 65.9978 99.9616 65.6098C99.8844 65.2219 99.6939 64.8655 99.4142 64.5858C99.1345 64.3061 98.7781 64.1156 98.3902 64.0384C98.0022 63.9613 97.6 64.0009 97.2346 64.1522C96.8691 64.3036 96.5568 64.56 96.337 64.8889C96.1173 65.2178 96 65.6044 96 66C96 66.5304 96.2107 67.0392 96.5857 67.4142C96.9608 67.7893 97.4695 68 98 68Z" fill="white"/>
<path d="M98 52C98.3955 52 98.7822 51.8827 99.1111 51.6629C99.44 51.4432 99.6964 51.1308 99.8478 50.7654C99.9992 50.3999 100.039 49.9978 99.9616 49.6098C99.8844 49.2219 99.6939 48.8655 99.4142 48.5858C99.1345 48.3061 98.7781 48.1156 98.3902 48.0384C98.0022 47.9613 97.6 48.0009 97.2346 48.1522C96.8691 48.3036 96.5568 48.56 96.337 48.8889C96.1173 49.2178 96 49.6044 96 50C96 50.5304 96.2107 51.0392 96.5857 51.4142C96.9608 51.7893 97.4695 52 98 52Z" fill="#00B0EF"/>
<path d="M98 36C98.3955 36 98.7822 35.8827 99.1111 35.6629C99.44 35.4432 99.6964 35.1308 99.8478 34.7654C99.9992 34.3999 100.039 33.9978 99.9616 33.6098C99.8844 33.2219 99.6939 32.8655 99.4142 32.5858C99.1345 32.3061 98.7781 32.1156 98.3902 32.0384C98.0022 31.9613 97.6 32.0009 97.2346 32.1522C96.8691 32.3036 96.5568 32.56 96.337 32.8889C96.1173 33.2178 96 33.6044 96 34C96 34.5304 96.2107 35.0392 96.5857 35.4142C96.9608 35.7893 97.4695 36 98 36Z" fill="#00B0EF"/>
<path d="M98 20C98.3955 20 98.7822 19.8827 99.1111 19.6629C99.44 19.4432 99.6964 19.1308 99.8478 18.7654C99.9992 18.3999 100.039 17.9978 99.9616 17.6098C99.8844 17.2219 99.6939 16.8655 99.4142 16.5858C99.1345 16.3061 98.7781 16.1156 98.3902 16.0384C98.0022 15.9613 97.6 16.0009 97.2346 16.1522C96.8691 16.3036 96.5568 16.56 96.337 16.8889C96.1173 17.2178 96 17.6044 96 18C96 18.5304 96.2107 19.0392 96.5857 19.4142C96.9608 19.7893 97.4695 20 98 20Z" fill="#00B0EF"/>
<path d="M98 4C98.3955 4 98.7822 3.88271 99.1111 3.66294C99.44 3.44318 99.6964 3.13083 99.8478 2.76538C99.9992 2.39993 100.039 1.99778 99.9616 1.60982C99.8844 1.22186 99.6939 0.865499 99.4142 0.585794C99.1345 0.306089 98.7781 0.115601 98.3902 0.0384307C98.0022 -0.0387397 97.6 0.000865459 97.2346 0.152241C96.8691 0.303616 96.5568 0.559976 96.337 0.888874C96.1173 1.21777 96 1.60444 96 2C96 2.53043 96.2107 3.03915 96.5857 3.41423C96.9608 3.7893 97.4695 4 98 4Z" fill="#00B0EF"/>
<path d="M82 116C82.3955 116 82.7822 115.883 83.1111 115.663C83.44 115.443 83.6964 115.131 83.8478 114.765C83.9992 114.4 84.0387 113.998 83.9616 113.61C83.8844 113.222 83.6939 112.865 83.4142 112.586C83.1345 112.306 82.7781 112.116 82.3902 112.038C82.0022 111.961 81.6 112.001 81.2346 112.152C80.8691 112.304 80.5568 112.56 80.337 112.889C80.1173 113.218 80 113.604 80 114C80 114.53 80.2107 115.039 80.5857 115.414C80.9608 115.789 81.4695 116 82 116Z" fill="white"/>
<path d="M82 100C82.3955 100 82.7822 99.8827 83.1111 99.6629C83.44 99.4432 83.6964 99.1308 83.8478 98.7654C83.9992 98.3999 84.0387 97.9978 83.9616 97.6098C83.8844 97.2219 83.6939 96.8655 83.4142 96.5858C83.1345 96.3061 82.7781 96.1156 82.3902 96.0384C82.0022 95.9613 81.6 96.0009 81.2346 96.1522C80.8691 96.3036 80.5568 96.56 80.337 96.8889C80.1173 97.2178 80 97.6044 80 98C80 98.5304 80.2107 99.0392 80.5857 99.4142C80.9608 99.7893 81.4695 100 82 100Z" fill="white"/>
<path d="M82 84C82.3955 84 82.7822 83.8827 83.1111 83.6629C83.44 83.4432 83.6964 83.1308 83.8478 82.7654C83.9992 82.3999 84.0387 81.9978 83.9616 81.6098C83.8844 81.2219 83.6939 80.8655 83.4142 80.5858C83.1345 80.3061 82.7781 80.1156 82.3902 80.0384C82.0022 79.9613 81.6 80.0009 81.2346 80.1522C80.8691 80.3036 80.5568 80.56 80.337 80.8889C80.1173 81.2178 80 81.6044 80 82C80 82.5304 80.2107 83.0392 80.5857 83.4142C80.9608 83.7893 81.4695 84 82 84Z" fill="white"/>
<path d="M82 68C82.3955 68 82.7822 67.8827 83.1111 67.6629C83.44 67.4432 83.6964 67.1308 83.8478 66.7654C83.9992 66.3999 84.0387 65.9978 83.9616 65.6098C83.8844 65.2219 83.6939 64.8655 83.4142 64.5858C83.1345 64.3061 82.7781 64.1156 82.3902 64.0384C82.0022 63.9613 81.6 64.0009 81.2346 64.1522C80.8691 64.3036 80.5568 64.56 80.337 64.8889C80.1173 65.2178 80 65.6044 80 66C80 66.5304 80.2107 67.0392 80.5857 67.4142C80.9608 67.7893 81.4695 68 82 68Z" fill="white"/>
<path d="M82 52C82.3955 52 82.7822 51.8827 83.1111 51.6629C83.44 51.4432 83.6964 51.1308 83.8478 50.7654C83.9992 50.3999 84.0387 49.9978 83.9616 49.6098C83.8844 49.2219 83.6939 48.8655 83.4142 48.5858C83.1345 48.3061 82.7781 48.1156 82.3902 48.0384C82.0022 47.9613 81.6 48.0009 81.2346 48.1522C80.8691 48.3036 80.5568 48.56 80.337 48.8889C80.1173 49.2178 80 49.6044 80 50C80 50.5304 80.2107 51.0392 80.5857 51.4142C80.9608 51.7893 81.4695 52 82 52Z" fill="#00B0EF"/>
<path d="M82 36C82.3955 36 82.7822 35.8827 83.1111 35.6629C83.44 35.4432 83.6964 35.1308 83.8478 34.7654C83.9992 34.3999 84.0387 33.9978 83.9616 33.6098C83.8844 33.2219 83.6939 32.8655 83.4142 32.5858C83.1345 32.3061 82.7781 32.1156 82.3902 32.0384C82.0022 31.9613 81.6 32.0009 81.2346 32.1522C80.8691 32.3036 80.5568 32.56 80.337 32.8889C80.1173 33.2178 80 33.6044 80 34C80 34.5304 80.2107 35.0392 80.5857 35.4142C80.9608 35.7893 81.4695 36 82 36Z" fill="#00B0EF"/>
<path d="M82 20C82.3955 20 82.7822 19.8827 83.1111 19.6629C83.44 19.4432 83.6964 19.1308 83.8478 18.7654C83.9992 18.3999 84.0387 17.9978 83.9616 17.6098C83.8844 17.2219 83.6939 16.8655 83.4142 16.5858C83.1345 16.3061 82.7781 16.1156 82.3902 16.0384C82.0022 15.9613 81.6 16.0009 81.2346 16.1522C80.8691 16.3036 80.5568 16.56 80.337 16.8889C80.1173 17.2178 80 17.6044 80 18C80 18.5304 80.2107 19.0392 80.5857 19.4142C80.9608 19.7893 81.4695 20 82 20Z" fill="#00B0EF"/>
<path d="M82 4C82.3955 4 82.7822 3.88271 83.1111 3.66294C83.44 3.44318 83.6964 3.13083 83.8478 2.76538C83.9992 2.39993 84.0387 1.99778 83.9616 1.60982C83.8844 1.22186 83.6939 0.865499 83.4142 0.585794C83.1345 0.306089 82.7781 0.115601 82.3902 0.0384307C82.0022 -0.0387397 81.6 0.000865459 81.2346 0.152241C80.8691 0.303616 80.5568 0.559976 80.337 0.888874C80.1173 1.21777 80 1.60444 80 2C80 2.53043 80.2107 3.03915 80.5857 3.41423C80.9608 3.7893 81.4695 4 82 4Z" fill="#00B0EF"/>
<path d="M66 116C66.3955 116 66.7822 115.883 67.1111 115.663C67.44 115.443 67.6964 115.131 67.8478 114.765C67.9992 114.4 68.0387 113.998 67.9616 113.61C67.8844 113.222 67.6939 112.865 67.4142 112.586C67.1345 112.306 66.7781 112.116 66.3902 112.038C66.0022 111.961 65.6 112.001 65.2346 112.152C64.8691 112.304 64.5568 112.56 64.337 112.889C64.1173 113.218 64 113.604 64 114C64 114.53 64.2107 115.039 64.5857 115.414C64.9608 115.789 65.4695 116 66 116Z" fill="white"/>
<path d="M66 100C66.3955 100 66.7822 99.8827 67.1111 99.6629C67.44 99.4432 67.6964 99.1308 67.8478 98.7654C67.9992 98.3999 68.0387 97.9978 67.9616 97.6098C67.8844 97.2219 67.6939 96.8655 67.4142 96.5858C67.1345 96.3061 66.7781 96.1156 66.3902 96.0384C66.0022 95.9613 65.6 96.0009 65.2346 96.1522C64.8691 96.3036 64.5568 96.56 64.337 96.8889C64.1173 97.2178 64 97.6044 64 98C64 98.5304 64.2107 99.0392 64.5857 99.4142C64.9608 99.7893 65.4695 100 66 100Z" fill="white"/>
<path d="M66 84C66.3955 84 66.7822 83.8827 67.1111 83.6629C67.44 83.4432 67.6964 83.1308 67.8478 82.7654C67.9992 82.3999 68.0387 81.9978 67.9616 81.6098C67.8844 81.2219 67.6939 80.8655 67.4142 80.5858C67.1345 80.3061 66.7781 80.1156 66.3902 80.0384C66.0022 79.9613 65.6 80.0009 65.2346 80.1522C64.8691 80.3036 64.5568 80.56 64.337 80.8889C64.1173 81.2178 64 81.6044 64 82C64 82.5304 64.2107 83.0392 64.5857 83.4142C64.9608 83.7893 65.4695 84 66 84Z" fill="white"/>
<path d="M66 68C66.3955 68 66.7822 67.8827 67.1111 67.6629C67.44 67.4432 67.6964 67.1308 67.8478 66.7654C67.9992 66.3999 68.0387 65.9978 67.9616 65.6098C67.8844 65.2219 67.6939 64.8655 67.4142 64.5858C67.1345 64.3061 66.7781 64.1156 66.3902 64.0384C66.0022 63.9613 65.6 64.0009 65.2346 64.1522C64.8691 64.3036 64.5568 64.56 64.337 64.8889C64.1173 65.2178 64 65.6044 64 66C64 66.5304 64.2107 67.0392 64.5857 67.4142C64.9608 67.7893 65.4695 68 66 68Z" fill="white"/>
<path d="M66 52C66.3955 52 66.7822 51.8827 67.1111 51.6629C67.44 51.4432 67.6964 51.1308 67.8478 50.7654C67.9992 50.3999 68.0387 49.9978 67.9616 49.6098C67.8844 49.2219 67.6939 48.8655 67.4142 48.5858C67.1345 48.3061 66.7781 48.1156 66.3902 48.0384C66.0022 47.9613 65.6 48.0009 65.2346 48.1522C64.8691 48.3036 64.5568 48.56 64.337 48.8889C64.1173 49.2178 64 49.6044 64 50C64 50.5304 64.2107 51.0392 64.5857 51.4142C64.9608 51.7893 65.4695 52 66 52Z" fill="#00B0EF"/>
<path d="M66 36C66.3955 36 66.7822 35.8827 67.1111 35.6629C67.44 35.4432 67.6964 35.1308 67.8478 34.7654C67.9992 34.3999 68.0387 33.9978 67.9616 33.6098C67.8844 33.2219 67.6939 32.8655 67.4142 32.5858C67.1345 32.3061 66.7781 32.1156 66.3902 32.0384C66.0022 31.9613 65.6 32.0009 65.2346 32.1522C64.8691 32.3036 64.5568 32.56 64.337 32.8889C64.1173 33.2178 64 33.6044 64 34C64 34.5304 64.2107 35.0392 64.5857 35.4142C64.9608 35.7893 65.4695 36 66 36Z" fill="#00B0EF"/>
<path d="M66 20C66.3955 20 66.7822 19.8827 67.1111 19.6629C67.44 19.4432 67.6964 19.1308 67.8478 18.7654C67.9992 18.3999 68.0387 17.9978 67.9616 17.6098C67.8844 17.2219 67.6939 16.8655 67.4142 16.5858C67.1345 16.3061 66.7781 16.1156 66.3902 16.0384C66.0022 15.9613 65.6 16.0009 65.2346 16.1522C64.8691 16.3036 64.5568 16.56 64.337 16.8889C64.1173 17.2178 64 17.6044 64 18C64 18.5304 64.2107 19.0392 64.5857 19.4142C64.9608 19.7893 65.4695 20 66 20Z" fill="#00B0EF"/>
<path d="M66 4C66.3955 4 66.7822 3.88271 67.1111 3.66294C67.44 3.44318 67.6964 3.13083 67.8478 2.76538C67.9992 2.39993 68.0387 1.99778 67.9616 1.60982C67.8844 1.22186 67.6939 0.865499 67.4142 0.585794C67.1345 0.306089 66.7781 0.115601 66.3902 0.0384307C66.0022 -0.0387397 65.6 0.000865459 65.2346 0.152241C64.8691 0.303616 64.5568 0.559976 64.337 0.888874C64.1173 1.21777 64 1.60444 64 2C64 2.53043 64.2107 3.03915 64.5857 3.41423C64.9608 3.7893 65.4695 4 66 4Z" fill="#00B0EF"/>
<path d="M50 116C50.3955 116 50.7822 115.883 51.1111 115.663C51.44 115.443 51.6964 115.131 51.8478 114.765C51.9992 114.4 52.0387 113.998 51.9616 113.61C51.8844 113.222 51.6939 112.865 51.4142 112.586C51.1345 112.306 50.7781 112.116 50.3902 112.038C50.0022 111.961 49.6 112.001 49.2346 112.152C48.8691 112.304 48.5568 112.56 48.337 112.889C48.1173 113.218 48 113.604 48 114C48 114.53 48.2107 115.039 48.5857 115.414C48.9608 115.789 49.4695 116 50 116Z" fill="white"/>
<path d="M50 100C50.3955 100 50.7822 99.8827 51.1111 99.6629C51.44 99.4432 51.6964 99.1308 51.8478 98.7654C51.9992 98.3999 52.0387 97.9978 51.9616 97.6098C51.8844 97.2219 51.6939 96.8655 51.4142 96.5858C51.1345 96.3061 50.7781 96.1156 50.3902 96.0384C50.0022 95.9613 49.6 96.0009 49.2346 96.1522C48.8691 96.3036 48.5568 96.56 48.337 96.8889C48.1173 97.2178 48 97.6044 48 98C48 98.5304 48.2107 99.0392 48.5857 99.4142C48.9608 99.7893 49.4695 100 50 100Z" fill="white"/>
<path d="M50 84C50.3955 84 50.7822 83.8827 51.1111 83.6629C51.44 83.4432 51.6964 83.1308 51.8478 82.7654C51.9992 82.3999 52.0387 81.9978 51.9616 81.6098C51.8844 81.2219 51.6939 80.8655 51.4142 80.5858C51.1345 80.3061 50.7781 80.1156 50.3902 80.0384C50.0022 79.9613 49.6 80.0009 49.2346 80.1522C48.8691 80.3036 48.5568 80.56 48.337 80.8889C48.1173 81.2178 48 81.6044 48 82C48 82.5304 48.2107 83.0392 48.5857 83.4142C48.9608 83.7893 49.4695 84 50 84Z" fill="white"/>
<path d="M50 68C50.3955 68 50.7822 67.8827 51.1111 67.6629C51.44 67.4432 51.6964 67.1308 51.8478 66.7654C51.9992 66.3999 52.0387 65.9978 51.9616 65.6098C51.8844 65.2219 51.6939 64.8655 51.4142 64.5858C51.1345 64.3061 50.7781 64.1156 50.3902 64.0384C50.0022 63.9613 49.6 64.0009 49.2346 64.1522C48.8691 64.3036 48.5568 64.56 48.337 64.8889C48.1173 65.2178 48 65.6044 48 66C48 66.5304 48.2107 67.0392 48.5857 67.4142C48.9608 67.7893 49.4695 68 50 68Z" fill="white"/>
<path d="M50 52C50.3955 52 50.7822 51.8827 51.1111 51.6629C51.44 51.4432 51.6964 51.1308 51.8478 50.7654C51.9992 50.3999 52.0387 49.9978 51.9616 49.6098C51.8844 49.2219 51.6939 48.8655 51.4142 48.5858C51.1345 48.3061 50.7781 48.1156 50.3902 48.0384C50.0022 47.9613 49.6 48.0009 49.2346 48.1522C48.8691 48.3036 48.5568 48.56 48.337 48.8889C48.1173 49.2178 48 49.6044 48 50C48 50.5304 48.2107 51.0392 48.5857 51.4142C48.9608 51.7893 49.4695 52 50 52Z" fill="#00B0EF"/>
<path d="M50 36C50.3955 36 50.7822 35.8827 51.1111 35.6629C51.44 35.4432 51.6964 35.1308 51.8478 34.7654C51.9992 34.3999 52.0387 33.9978 51.9616 33.6098C51.8844 33.2219 51.6939 32.8655 51.4142 32.5858C51.1345 32.3061 50.7781 32.1156 50.3902 32.0384C50.0022 31.9613 49.6 32.0009 49.2346 32.1522C48.8691 32.3036 48.5568 32.56 48.337 32.8889C48.1173 33.2178 48 33.6044 48 34C48 34.5304 48.2107 35.0392 48.5857 35.4142C48.9608 35.7893 49.4695 36 50 36Z" fill="#00B0EF"/>
<path d="M50 20C50.3955 20 50.7822 19.8827 51.1111 19.6629C51.44 19.4432 51.6964 19.1308 51.8478 18.7654C51.9992 18.3999 52.0387 17.9978 51.9616 17.6098C51.8844 17.2219 51.6939 16.8655 51.4142 16.5858C51.1345 16.3061 50.7781 16.1156 50.3902 16.0384C50.0022 15.9613 49.6 16.0009 49.2346 16.1522C48.8691 16.3036 48.5568 16.56 48.337 16.8889C48.1173 17.2178 48 17.6044 48 18C48 18.5304 48.2107 19.0392 48.5857 19.4142C48.9608 19.7893 49.4695 20 50 20Z" fill="#00B0EF"/>
<path d="M50 4C50.3955 4 50.7822 3.88271 51.1111 3.66294C51.44 3.44318 51.6964 3.13083 51.8478 2.76538C51.9992 2.39993 52.0387 1.99778 51.9616 1.60982C51.8844 1.22186 51.6939 0.865499 51.4142 0.585794C51.1345 0.306089 50.7781 0.115601 50.3902 0.0384307C50.0022 -0.0387397 49.6 0.000865459 49.2346 0.152241C48.8691 0.303616 48.5568 0.559976 48.337 0.888874C48.1173 1.21777 48 1.60444 48 2C48 2.53043 48.2107 3.03915 48.5857 3.41423C48.9608 3.7893 49.4695 4 50 4Z" fill="#00B0EF"/>
<path d="M34 116C34.3955 116 34.7822 115.883 35.1111 115.663C35.44 115.443 35.6964 115.131 35.8478 114.765C35.9992 114.4 36.0387 113.998 35.9616 113.61C35.8844 113.222 35.6939 112.865 35.4142 112.586C35.1345 112.306 34.7781 112.116 34.3902 112.038C34.0022 111.961 33.6 112.001 33.2346 112.152C32.8691 112.304 32.5568 112.56 32.337 112.889C32.1173 113.218 32 113.604 32 114C32 114.53 32.2107 115.039 32.5857 115.414C32.9608 115.789 33.4695 116 34 116Z" fill="white"/>
<path d="M34 100C34.3955 100 34.7822 99.8827 35.1111 99.6629C35.44 99.4432 35.6964 99.1308 35.8478 98.7654C35.9992 98.3999 36.0387 97.9978 35.9616 97.6098C35.8844 97.2219 35.6939 96.8655 35.4142 96.5858C35.1345 96.3061 34.7781 96.1156 34.3902 96.0384C34.0022 95.9613 33.6 96.0009 33.2346 96.1522C32.8691 96.3036 32.5568 96.56 32.337 96.8889C32.1173 97.2178 32 97.6044 32 98C32 98.5304 32.2107 99.0392 32.5857 99.4142C32.9608 99.7893 33.4695 100 34 100Z" fill="white"/>
<path d="M34 84C34.3955 84 34.7822 83.8827 35.1111 83.6629C35.44 83.4432 35.6964 83.1308 35.8478 82.7654C35.9992 82.3999 36.0387 81.9978 35.9616 81.6098C35.8844 81.2219 35.6939 80.8655 35.4142 80.5858C35.1345 80.3061 34.7781 80.1156 34.3902 80.0384C34.0022 79.9613 33.6 80.0009 33.2346 80.1522C32.8691 80.3036 32.5568 80.56 32.337 80.8889C32.1173 81.2178 32 81.6044 32 82C32 82.5304 32.2107 83.0392 32.5857 83.4142C32.9608 83.7893 33.4695 84 34 84Z" fill="white"/>
<path d="M34 68C34.3955 68 34.7822 67.8827 35.1111 67.6629C35.44 67.4432 35.6964 67.1308 35.8478 66.7654C35.9992 66.3999 36.0387 65.9978 35.9616 65.6098C35.8844 65.2219 35.6939 64.8655 35.4142 64.5858C35.1345 64.3061 34.7781 64.1156 34.3902 64.0384C34.0022 63.9613 33.6 64.0009 33.2346 64.1522C32.8691 64.3036 32.5568 64.56 32.337 64.8889C32.1173 65.2178 32 65.6044 32 66C32 66.5304 32.2107 67.0392 32.5857 67.4142C32.9608 67.7893 33.4695 68 34 68Z" fill="white"/>
<path d="M34 52C34.3955 52 34.7822 51.8827 35.1111 51.6629C35.44 51.4432 35.6964 51.1308 35.8478 50.7654C35.9992 50.3999 36.0387 49.9978 35.9616 49.6098C35.8844 49.2219 35.6939 48.8655 35.4142 48.5858C35.1345 48.3061 34.7781 48.1156 34.3902 48.0384C34.0022 47.9613 33.6 48.0009 33.2346 48.1522C32.8691 48.3036 32.5568 48.56 32.337 48.8889C32.1173 49.2178 32 49.6044 32 50C32 50.5304 32.2107 51.0392 32.5857 51.4142C32.9608 51.7893 33.4695 52 34 52Z" fill="#00B0EF"/>
<path d="M34 36C34.3955 36 34.7822 35.8827 35.1111 35.6629C35.44 35.4432 35.6964 35.1308 35.8478 34.7654C35.9992 34.3999 36.0387 33.9978 35.9616 33.6098C35.8844 33.2219 35.6939 32.8655 35.4142 32.5858C35.1345 32.3061 34.7781 32.1156 34.3902 32.0384C34.0022 31.9613 33.6 32.0009 33.2346 32.1522C32.8691 32.3036 32.5568 32.56 32.337 32.8889C32.1173 33.2178 32 33.6044 32 34C32 34.5304 32.2107 35.0392 32.5857 35.4142C32.9608 35.7893 33.4695 36 34 36Z" fill="#00B0EF"/>
<path d="M34 20C34.3955 20 34.7822 19.8827 35.1111 19.6629C35.44 19.4432 35.6964 19.1308 35.8478 18.7654C35.9992 18.3999 36.0387 17.9978 35.9616 17.6098C35.8844 17.2219 35.6939 16.8655 35.4142 16.5858C35.1345 16.3061 34.7781 16.1156 34.3902 16.0384C34.0022 15.9613 33.6 16.0009 33.2346 16.1522C32.8691 16.3036 32.5568 16.56 32.337 16.8889C32.1173 17.2178 32 17.6044 32 18C32 18.5304 32.2107 19.0392 32.5857 19.4142C32.9608 19.7893 33.4695 20 34 20Z" fill="#00B0EF"/>
<path d="M34 4C34.3955 4 34.7822 3.88271 35.1111 3.66294C35.44 3.44318 35.6964 3.13083 35.8478 2.76538C35.9992 2.39993 36.0387 1.99778 35.9616 1.60982C35.8844 1.22186 35.6939 0.865499 35.4142 0.585794C35.1345 0.306089 34.7781 0.115601 34.3902 0.0384307C34.0022 -0.0387397 33.6 0.000865459 33.2346 0.152241C32.8691 0.303616 32.5568 0.559976 32.337 0.888874C32.1173 1.21777 32 1.60444 32 2C32 2.53043 32.2107 3.03915 32.5857 3.41423C32.9608 3.7893 33.4695 4 34 4Z" fill="#00B0EF"/>
<path d="M18 116C18.3955 116 18.7822 115.883 19.1111 115.663C19.44 115.443 19.6964 115.131 19.8478 114.765C19.9992 114.4 20.0387 113.998 19.9616 113.61C19.8844 113.222 19.6939 112.865 19.4142 112.586C19.1345 112.306 18.7781 112.116 18.3902 112.038C18.0022 111.961 17.6 112.001 17.2346 112.152C16.8691 112.304 16.5568 112.56 16.337 112.889C16.1173 113.218 16 113.604 16 114C16 114.53 16.2107 115.039 16.5857 115.414C16.9608 115.789 17.4695 116 18 116Z" fill="white"/>
<path d="M18 100C18.3955 100 18.7822 99.8827 19.1111 99.6629C19.44 99.4432 19.6964 99.1308 19.8478 98.7654C19.9992 98.3999 20.0387 97.9978 19.9616 97.6098C19.8844 97.2219 19.6939 96.8655 19.4142 96.5858C19.1345 96.3061 18.7781 96.1156 18.3902 96.0384C18.0022 95.9613 17.6 96.0009 17.2346 96.1522C16.8691 96.3036 16.5568 96.56 16.337 96.8889C16.1173 97.2178 16 97.6044 16 98C16 98.5304 16.2107 99.0392 16.5857 99.4142C16.9608 99.7893 17.4695 100 18 100Z" fill="white"/>
<path d="M18 84C18.3955 84 18.7822 83.8827 19.1111 83.6629C19.44 83.4432 19.6964 83.1308 19.8478 82.7654C19.9992 82.3999 20.0387 81.9978 19.9616 81.6098C19.8844 81.2219 19.6939 80.8655 19.4142 80.5858C19.1345 80.3061 18.7781 80.1156 18.3902 80.0384C18.0022 79.9613 17.6 80.0009 17.2346 80.1522C16.8691 80.3036 16.5568 80.56 16.337 80.8889C16.1173 81.2178 16 81.6044 16 82C16 82.5304 16.2107 83.0392 16.5857 83.4142C16.9608 83.7893 17.4695 84 18 84Z" fill="white"/>
<path d="M18 68C18.3955 68 18.7822 67.8827 19.1111 67.6629C19.44 67.4432 19.6964 67.1308 19.8478 66.7654C19.9992 66.3999 20.0387 65.9978 19.9616 65.6098C19.8844 65.2219 19.6939 64.8655 19.4142 64.5858C19.1345 64.3061 18.7781 64.1156 18.3902 64.0384C18.0022 63.9613 17.6 64.0009 17.2346 64.1522C16.8691 64.3036 16.5568 64.56 16.337 64.8889C16.1173 65.2178 16 65.6044 16 66C16 66.5304 16.2107 67.0392 16.5857 67.4142C16.9608 67.7893 17.4695 68 18 68Z" fill="white"/>
<path d="M18 52C18.3955 52 18.7822 51.8827 19.1111 51.6629C19.44 51.4432 19.6964 51.1308 19.8478 50.7654C19.9992 50.3999 20.0387 49.9978 19.9616 49.6098C19.8844 49.2219 19.6939 48.8655 19.4142 48.5858C19.1345 48.3061 18.7781 48.1156 18.3902 48.0384C18.0022 47.9613 17.6 48.0009 17.2346 48.1522C16.8691 48.3036 16.5568 48.56 16.337 48.8889C16.1173 49.2178 16 49.6044 16 50C16 50.5304 16.2107 51.0392 16.5857 51.4142C16.9608 51.7893 17.4695 52 18 52Z" fill="#00B0EF"/>
<path d="M18 36C18.3955 36 18.7822 35.8827 19.1111 35.6629C19.44 35.4432 19.6964 35.1308 19.8478 34.7654C19.9992 34.3999 20.0387 33.9978 19.9616 33.6098C19.8844 33.2219 19.6939 32.8655 19.4142 32.5858C19.1345 32.3061 18.7781 32.1156 18.3902 32.0384C18.0022 31.9613 17.6 32.0009 17.2346 32.1522C16.8691 32.3036 16.5568 32.56 16.337 32.8889C16.1173 33.2178 16 33.6044 16 34C16 34.5304 16.2107 35.0392 16.5857 35.4142C16.9608 35.7893 17.4695 36 18 36Z" fill="#00B0EF"/>
<path d="M18 20C18.3955 20 18.7822 19.8827 19.1111 19.6629C19.44 19.4432 19.6964 19.1308 19.8478 18.7654C19.9992 18.3999 20.0387 17.9978 19.9616 17.6098C19.8844 17.2219 19.6939 16.8655 19.4142 16.5858C19.1345 16.3061 18.7781 16.1156 18.3902 16.0384C18.0022 15.9613 17.6 16.0009 17.2346 16.1522C16.8691 16.3036 16.5568 16.56 16.337 16.8889C16.1173 17.2178 16 17.6044 16 18C16 18.5304 16.2107 19.0392 16.5857 19.4142C16.9608 19.7893 17.4695 20 18 20Z" fill="#00B0EF"/>
<path d="M18 4C18.3955 4 18.7822 3.88271 19.1111 3.66294C19.44 3.44318 19.6964 3.13083 19.8478 2.76538C19.9992 2.39993 20.0387 1.99778 19.9616 1.60982C19.8844 1.22186 19.6939 0.865499 19.4142 0.585794C19.1345 0.306089 18.7781 0.115601 18.3902 0.0384307C18.0022 -0.0387397 17.6 0.000865459 17.2346 0.152241C16.8691 0.303616 16.5568 0.559976 16.337 0.888874C16.1173 1.21777 16 1.60444 16 2C16 2.53043 16.2107 3.03915 16.5857 3.41423C16.9608 3.7893 17.4695 4 18 4Z" fill="#00B0EF"/>
<path d="M1.99997 116C2.39553 116 2.78224 115.883 3.11114 115.663C3.44003 115.443 3.69641 115.131 3.84779 114.765C3.99916 114.4 4.03873 113.998 3.96156 113.61C3.88439 113.222 3.6939 112.865 3.4142 112.586C3.13449 112.306 2.77815 112.116 2.39019 112.038C2.00223 111.961 1.60004 112.001 1.23459 112.152C0.869136 112.304 0.556808 112.56 0.337045 112.889C0.117283 113.218 -3.14713e-05 113.604 -3.14713e-05 114C-3.14713e-05 114.53 0.210671 115.039 0.585743 115.414C0.960816 115.789 1.46954 116 1.99997 116Z" fill="white"/>
<path d="M1.99997 100C2.39553 100 2.78224 99.8827 3.11114 99.6629C3.44003 99.4432 3.69641 99.1308 3.84779 98.7654C3.99916 98.3999 4.03873 97.9978 3.96156 97.6098C3.88439 97.2219 3.6939 96.8655 3.4142 96.5858C3.13449 96.3061 2.77815 96.1156 2.39019 96.0384C2.00223 95.9613 1.60004 96.0009 1.23459 96.1522C0.869136 96.3036 0.556808 96.56 0.337045 96.8889C0.117283 97.2178 -3.14713e-05 97.6044 -3.14713e-05 98C-3.14713e-05 98.5304 0.210671 99.0392 0.585743 99.4142C0.960816 99.7893 1.46954 100 1.99997 100Z" fill="white"/>
<path d="M1.99997 84C2.39553 84 2.78224 83.8827 3.11114 83.6629C3.44003 83.4432 3.69641 83.1308 3.84779 82.7654C3.99916 82.3999 4.03873 81.9978 3.96156 81.6098C3.88439 81.2219 3.6939 80.8655 3.4142 80.5858C3.13449 80.3061 2.77815 80.1156 2.39019 80.0384C2.00223 79.9613 1.60004 80.0009 1.23459 80.1522C0.869136 80.3036 0.556808 80.56 0.337045 80.8889C0.117283 81.2178 -3.14713e-05 81.6044 -3.14713e-05 82C-3.14713e-05 82.5304 0.210671 83.0392 0.585743 83.4142C0.960816 83.7893 1.46954 84 1.99997 84Z" fill="white"/>
<path d="M1.99997 68C2.39553 68 2.78224 67.8827 3.11114 67.6629C3.44003 67.4432 3.69641 67.1308 3.84779 66.7654C3.99916 66.3999 4.03873 65.9978 3.96156 65.6098C3.88439 65.2219 3.6939 64.8655 3.4142 64.5858C3.13449 64.3061 2.77815 64.1156 2.39019 64.0384C2.00223 63.9613 1.60004 64.0009 1.23459 64.1522C0.869136 64.3036 0.556808 64.56 0.337045 64.8889C0.117283 65.2178 -3.14713e-05 65.6044 -3.14713e-05 66C-3.14713e-05 66.5304 0.210671 67.0392 0.585743 67.4142C0.960816 67.7893 1.46954 68 1.99997 68Z" fill="white"/>
<path d="M1.99997 52C2.39553 52 2.78224 51.8827 3.11114 51.6629C3.44003 51.4432 3.69641 51.1308 3.84779 50.7654C3.99916 50.3999 4.03873 49.9978 3.96156 49.6098C3.88439 49.2219 3.6939 48.8655 3.4142 48.5858C3.13449 48.3061 2.77815 48.1156 2.39019 48.0384C2.00223 47.9613 1.60004 48.0009 1.23459 48.1522C0.869136 48.3036 0.556808 48.56 0.337045 48.8889C0.117283 49.2178 -3.14713e-05 49.6044 -3.14713e-05 50C-3.14713e-05 50.5304 0.210671 51.0392 0.585743 51.4142C0.960816 51.7893 1.46954 52 1.99997 52Z" fill="#00B0EF"/>
<path d="M1.99997 36C2.39553 36 2.78224 35.8827 3.11114 35.6629C3.44003 35.4432 3.69641 35.1308 3.84779 34.7654C3.99916 34.3999 4.03873 33.9978 3.96156 33.6098C3.88439 33.2219 3.6939 32.8655 3.4142 32.5858C3.13449 32.3061 2.77815 32.1156 2.39019 32.0384C2.00223 31.9613 1.60004 32.0009 1.23459 32.1522C0.869136 32.3036 0.556808 32.56 0.337045 32.8889C0.117283 33.2178 -3.14713e-05 33.6044 -3.14713e-05 34C-3.14713e-05 34.5304 0.210671 35.0392 0.585743 35.4142C0.960816 35.7893 1.46954 36 1.99997 36Z" fill="#00B0EF"/>
<path d="M1.99997 20C2.39553 20 2.78224 19.8827 3.11114 19.6629C3.44003 19.4432 3.69641 19.1308 3.84779 18.7654C3.99916 18.3999 4.03873 17.9978 3.96156 17.6098C3.88439 17.2219 3.6939 16.8655 3.4142 16.5858C3.13449 16.3061 2.77815 16.1156 2.39019 16.0384C2.00223 15.9613 1.60004 16.0009 1.23459 16.1522C0.869136 16.3036 0.556808 16.56 0.337045 16.8889C0.117283 17.2178 -3.14713e-05 17.6044 -3.14713e-05 18C-3.14713e-05 18.5304 0.210671 19.0392 0.585743 19.4142C0.960816 19.7893 1.46954 20 1.99997 20Z" fill="#00B0EF"/>
<path d="M1.99997 4C2.39553 4 2.78224 3.88271 3.11114 3.66294C3.44003 3.44318 3.69641 3.13083 3.84779 2.76538C3.99916 2.39993 4.03873 1.99778 3.96156 1.60982C3.88439 1.22186 3.6939 0.865499 3.4142 0.585794C3.13449 0.306089 2.77815 0.115601 2.39019 0.0384307C2.00223 -0.0387397 1.60004 0.000865459 1.23459 0.152241C0.869136 0.303616 0.556808 0.559976 0.337045 0.888874C0.117283 1.21777 -3.14713e-05 1.60444 -3.14713e-05 2C-3.14713e-05 2.53043 0.210671 3.03915 0.585743 3.41423C0.960816 3.7893 1.46954 4 1.99997 4Z" fill="#00B0EF"/>
</svg>
